<svg width="31" height="22" viewBox="0 0 31 22" fill="none" xmlns="http://www.w3.org/2000/svg">
  <path d="M29.6868 0.584839L29.4128 0.16659L29.4125 0.166757L29.6868 0.584839ZM30.4045 0.710815L30.8051 0.4115L30.805 0.411384L30.4045 0.710815ZM30.2854 1.38562L30.5597 1.80369L30.56 1.80349L30.2854 1.38562ZM16.2346 10.6034L15.9604 10.1853L15.3231 10.6034L15.9604 11.0215L16.2346 10.6034ZM30.2854 19.8212L30.56 19.4033L30.5597 19.4031L30.2854 19.8212ZM30.4045 20.496L30.8051 20.7953L30.8052 20.7951L30.4045 20.496ZM29.6868 20.6219L29.4125 21.04L29.4128 21.0402L29.6868 20.6219ZM15.3254 11.2001L15.5997 10.782L15.3254 10.6021L15.0511 10.782L15.3254 11.2001ZM1.31372 20.3934L1.58786 20.8116L1.58801 20.8115L1.31372 20.3934ZM0.595947 20.2665L0.195129 20.5654L0.195435 20.5658L0.595947 20.2665ZM0.715088 19.5917L0.989359 20.0097L0.989363 20.0097L0.715088 19.5917ZM14.4153 10.6034L14.6896 11.0215L15.3268 10.6034L14.6896 10.1853L14.4153 10.6034ZM0.715088 1.61511L0.989363 1.19705L0.989359 1.19705L0.715088 1.61511ZM0.595947 0.940308L0.195435 0.640992L0.195329 0.641134L0.595947 0.940308ZM1.31372 0.814331L1.03945 1.23239L1.03946 1.2324L1.31372 0.814331ZM15.3245 10.0057L15.0502 10.4238L15.3244 10.6037L15.5987 10.4238L15.3245 10.0057ZM29.9608 1.00309C29.9621 1.0022 29.9697 0.998251 29.9839 1.00074C29.9981 1.00322 30.0035 1.0094 30.0041 1.01025L30.805 0.411384C30.4811 -0.0217788 29.8638 -0.128873 29.4128 0.16659L29.9608 1.00309ZM30.004 1.01013C30.0045 1.01075 30.0027 1.00838 30.0015 1.00316C30.0003 0.99826 30.0001 0.992728 30.0011 0.987181C30.0021 0.981641 30.0041 0.976694 30.0067 0.972753C30.0095 0.968548 30.0117 0.967173 30.0108 0.967747L30.56 1.80349C31.0303 1.49448 31.1435 0.864326 30.8051 0.4115L30.004 1.01013ZM30.0111 0.967555L15.9604 10.1853L16.5089 11.0215L30.5597 1.80369L30.0111 0.967555ZM15.9604 11.0215L30.0111 20.2392L30.5597 19.4031L16.5089 10.1853L15.9604 11.0215ZM30.0108 20.239C30.0117 20.2396 30.0094 20.2382 30.0066 20.2339C30.004 20.23 30.002 20.2251 30.001 20.2196C30 20.214 30.0002 20.2086 30.0014 20.2037C30.0026 20.1985 30.0044 20.1962 30.0039 20.1968L30.8052 20.7951C31.1431 20.3425 31.0304 19.7124 30.56 19.4033L30.0108 20.239ZM30.004 20.1967C30.0034 20.1975 29.9981 20.2036 29.984 20.2061C29.9698 20.2086 29.9622 20.2046 29.9608 20.2037L29.4128 21.0402C29.8637 21.3356 30.4811 21.2288 30.8051 20.7953L30.004 20.1967ZM29.961 20.2039L15.5997 10.782L15.0512 11.6181L29.4125 21.04L29.961 20.2039ZM15.0511 10.782L1.03943 19.9754L1.58801 20.8115L15.5997 11.6181L15.0511 10.782ZM1.03958 19.9753C1.0387 19.9759 1.03157 19.9798 1.01744 19.9773C1.00328 19.9748 0.997459 19.9685 0.99646 19.9672L0.195435 20.5658C0.518343 20.9979 1.13528 21.1083 1.58786 20.8116L1.03958 19.9753ZM0.996765 19.9676C0.996251 19.9669 0.997971 19.9691 0.999163 19.9742C1.00028 19.9789 1.0005 19.9843 0.999529 19.9898C0.998557 19.9953 0.996495 20.0003 0.993828 20.0044C0.990984 20.0087 0.988614 20.0102 0.989359 20.0097L0.440817 19.1736C-0.0306896 19.4829 -0.141952 20.1134 0.195129 20.5654L0.996765 19.9676ZM0.989363 20.0097L14.6896 11.0215L14.141 10.1853L0.440812 19.1736L0.989363 20.0097ZM14.6896 10.1853L0.989363 1.19705L0.440812 2.03317L14.141 11.0215L14.6896 10.1853ZM0.989359 1.19705C0.988522 1.1965 0.990843 1.19793 0.993669 1.20223C0.99632 1.20627 0.998401 1.21129 0.999386 1.21687C1.00037 1.22245 1.00015 1.22795 0.99901 1.23278C0.997795 1.23791 0.996042 1.24018 0.996565 1.23948L0.195329 0.641134C-0.142525 1.09355 -0.0304877 1.72397 0.440817 2.03317L0.989359 1.19705ZM0.99646 1.23962C0.997219 1.23861 1.00263 1.2325 1.01659 1.23005C1.03058 1.2276 1.03806 1.23148 1.03945 1.23239L1.58799 0.39627C1.13662 0.100143 0.519286 0.207649 0.195435 0.640992L0.99646 1.23962ZM1.03946 1.2324L15.0502 10.4238L15.5987 9.58767L1.58798 0.396264L1.03946 1.2324ZM15.5987 10.4238L29.961 1.00292L29.4125 0.166757L15.0502 9.58766L15.5987 10.4238Z" fill="#F6E28A"/>
</svg>
