<svg width="39" height="40" viewBox="0 0 39 40" fill="none" xmlns="http://www.w3.org/2000/svg">
<rect width="39" height="40" fill="#F5F5F5"/>
<g id="Section2">
<path d="M-809.5 -956C-809.5 -957.105 -808.605 -958 -807.5 -958H3345.5C3346.6 -958 3347.5 -957.105 3347.5 -956V2636C3347.5 2637.1 3346.6 2638 3345.5 2638H-807.5C-808.605 2638 -809.5 2637.1 -809.5 2636V-956Z" fill="white"/>
<path d="M-807.5 -958V-957H3345.5V-958V-959H-807.5V-958ZM3347.5 -956H3346.5V2636H3347.5H3348.5V-956H3347.5ZM3345.5 2638V2637H-807.5V2638V2639H3345.5V2638ZM-809.5 2636H-808.5V-956H-809.5H-810.5V2636H-809.5ZM-807.5 2638V2637C-808.052 2637 -808.5 2636.55 -808.5 2636H-809.5H-810.5C-810.5 2637.66 -809.157 2639 -807.5 2639V2638ZM3347.5 2636H3346.5C3346.5 2636.55 3346.05 2637 3345.5 2637V2638V2639C3347.16 2639 3348.5 2637.66 3348.5 2636H3347.5ZM3345.5 -958V-957C3346.05 -957 3346.5 -956.552 3346.5 -956H3347.5H3348.5C3348.5 -957.657 3347.16 -959 3345.5 -959V-958ZM-807.5 -958V-959C-809.157 -959 -810.5 -957.657 -810.5 -956H-809.5H-808.5C-808.5 -956.552 -808.052 -957 -807.5 -957V-958Z" fill="black" fill-opacity="0.1"/>
<g id="HamburgerMenuView">
<rect width="390" height="844" transform="translate(-81.5 -617)" fill="#6B8A9E"/>
<g id="contents">
<g id="Frame 1">
<path id="Vector" d="M0 0H11.6216L20.0947 12.3971C20.6132 13.1693 21.1622 13.936 21.6749 14.7097C22.7658 13.3997 23.9129 12.0921 25.0248 10.7951L31.2513 3.53191C32.2441 2.37383 33.3112 1.17136 34.2771 0H37.726C37.0998 0.758563 36.4211 1.52816 35.7778 2.2783L32.1592 6.49906L23.2048 16.942L33.9409 32.6029L37.3707 37.6117L38.454 39.193C38.5939 39.3971 38.8848 39.7977 39 40H27.3797L16.7623 24.4641L3.44223 40H0V39.9863C0.061658 39.9307 0.29605 39.6449 0.360839 39.5689L1.17417 38.617L4.00952 35.3113L11.4081 26.6811L13.8632 23.8178C14.3051 23.3023 14.7756 22.7316 15.2312 22.2332C14.274 20.7805 13.2104 19.2977 12.2218 17.854L5.72126 8.35953L1.8531 2.71039L0.667897 0.977863C0.472181 0.690807 0.206852 0.275559 0 0.0129875V0ZM28.9971 37.515C30.7496 37.5096 32.5404 37.4969 34.2911 37.5146C33.9066 36.9891 33.5252 36.4242 33.152 35.8885L31.1483 33.0117L25.1258 24.3666L9.96658 2.59764L6.52881 2.59848C5.97925 2.59842 5.22543 2.57613 4.68865 2.60654L21.074 26.1316L26.4675 33.8725L28.1567 36.2965C28.369 36.601 28.8232 37.215 28.9971 37.515Z" fill="white"/>
</g>
</g>
</g>
</g>
</svg>
