<svg width="40" height="27" viewBox="0 0 40 27" fill="none" xmlns="http://www.w3.org/2000/svg">
<rect width="40" height="27" fill="#F5F5F5"/>
<g id="Section2">
<path d="M-898.5 -962.5C-898.5 -963.605 -897.605 -964.5 -896.5 -964.5H3256.5C3257.6 -964.5 3258.5 -963.605 3258.5 -962.5V2629.5C3258.5 2630.6 3257.6 2631.5 3256.5 2631.5H-896.5C-897.605 2631.5 -898.5 2630.6 -898.5 2629.5V-962.5Z" fill="white"/>
<path d="M-896.5 -964.5V-963.5H3256.5V-964.5V-965.5H-896.5V-964.5ZM3258.5 -962.5H3257.5V2629.5H3258.5H3259.5V-962.5H3258.5ZM3256.5 2631.5V2630.5H-896.5V2631.5V2632.5H3256.5V2631.5ZM-898.5 2629.5H-897.5V-962.5H-898.5H-899.5V2629.5H-898.5ZM-896.5 2631.5V2630.5C-897.052 2630.5 -897.5 2630.05 -897.5 2629.5H-898.5H-899.5C-899.5 2631.16 -898.157 2632.5 -896.5 2632.5V2631.5ZM3258.5 2629.5H3257.5C3257.5 2630.05 3257.05 2630.5 3256.5 2630.5V2631.5V2632.5C3258.16 2632.5 3259.5 2631.16 3259.5 2629.5H3258.5ZM3256.5 -964.5V-963.5C3257.05 -963.5 3257.5 -963.052 3257.5 -962.5H3258.5H3259.5C3259.5 -964.157 3258.16 -965.5 3256.5 -965.5V-964.5ZM-896.5 -964.5V-965.5C-898.157 -965.5 -899.5 -964.157 -899.5 -962.5H-898.5H-897.5C-897.5 -963.052 -897.052 -963.5 -896.5 -963.5V-964.5Z" fill="black" fill-opacity="0.1"/>
<g id="HamburgerMenuView">
<rect width="390" height="844" transform="translate(-170.5 -623.5)" fill="#6B8A9E"/>
<g id="contents">
<g id="Frame 1">
<path id="Vector" d="M16.4077 0.0269885C16.4138 0.0262736 16.4199 0.0255582 16.426 0.0248433C17.2926 0.0103437 18.1669 0.00419562 19.033 0.00262269C20.6451 -0.00527056 22.257 0.00465278 23.8688 0.0323936C26.4593 0.0676558 29.0483 0.164749 31.6338 0.323615C33.7121 0.470355 36.1544 0.507676 37.7496 1.95254C38.287 2.44227 38.7057 3.04018 38.9762 3.70373C39.7096 5.50903 39.9077 9.76381 39.9726 11.7722C40.0607 14.4989 39.9344 17.5615 39.6177 20.2793C39.5299 21.0326 39.3178 22.3478 39.0637 23.0665C38.8285 23.734 38.4465 24.3446 37.9441 24.8565C37.3771 25.4388 36.6668 25.8735 35.8788 26.12C34.8171 26.4563 32.9292 26.5959 31.7741 26.6777C29.0492 26.8481 26.3205 26.9497 23.5903 26.9823C19.1564 27.0126 14.7176 27.0317 10.2869 26.7969C8.75357 26.7154 5.80303 26.5742 4.36317 26.1884C3.576 25.9813 2.8538 25.5904 2.26028 25.0504C1.70158 24.5436 1.26441 23.9251 0.97929 23.2381C0.354632 21.6978 0.117912 17.7986 0.0536167 16.0535C-0.0663741 13.1437 0.0150929 10.2294 0.297424 7.33C0.486634 5.48792 0.656241 3.56883 2.03293 2.15777C2.6113 1.57023 3.33379 1.13262 4.13375 0.885209C5.19261 0.550632 6.95092 0.432118 8.09496 0.340717C10.8579 0.12002 13.6431 0.116874 16.4077 0.0269885ZM16.0173 19.2818C18.1105 18.0634 20.3311 16.8596 22.4521 15.6732L24.9652 14.2667C25.4017 14.0227 25.9124 13.721 26.3534 13.4992C25.7114 13.1024 24.897 12.6753 24.2294 12.3035L20.2198 10.0724L17.4592 8.53606C17.0792 8.32383 16.3832 7.90311 16.0156 7.74219C16.0457 10.2171 16.0201 12.7381 16.0197 15.2162L16.0204 17.8961C16.0207 18.2862 16.0418 18.9034 16.0173 19.2818Z" fill="white"/>
</g>
</g>
</g>
</g>
</svg>
