<svg width="48" height="48" viewBox="0 0 48 48" fill="none" xmlns="http://www.w3.org/2000/svg">
<rect width="48" height="48" fill="#F5F5F5"/>
<g id="Section2">
<path d="M-988.5 -952C-988.5 -953.105 -987.605 -954 -986.5 -954H3166.5C3167.6 -954 3168.5 -953.105 3168.5 -952V2640C3168.5 2641.1 3167.6 2642 3166.5 2642H-986.5C-987.605 2642 -988.5 2641.1 -988.5 2640V-952Z" fill="white"/>
<path d="M-986.5 -954V-953H3166.5V-954V-955H-986.5V-954ZM3168.5 -952H3167.5V2640H3168.5H3169.5V-952H3168.5ZM3166.5 2642V2641H-986.5V2642V2643H3166.5V2642ZM-988.5 2640H-987.5V-952H-988.5H-989.5V2640H-988.5ZM-986.5 2642V2641C-987.052 2641 -987.5 2640.55 -987.5 2640H-988.5H-989.5C-989.5 2641.66 -988.157 2643 -986.5 2643V2642ZM3168.5 2640H3167.5C3167.5 2640.55 3167.05 2641 3166.5 2641V2642V2643C3168.16 2643 3169.5 2641.66 3169.5 2640H3168.5ZM3166.5 -954V-953C3167.05 -953 3167.5 -952.552 3167.5 -952H3168.5H3169.5C3169.5 -953.657 3168.16 -955 3166.5 -955V-954ZM-986.5 -954V-955C-988.157 -955 -989.5 -953.657 -989.5 -952H-988.5H-987.5C-987.5 -952.552 -987.052 -953 -986.5 -953V-954Z" fill="black" fill-opacity="0.1"/>
<g id="HamburgerMenuView">
<rect width="390" height="844" transform="translate(-260.5 -613)" fill="#6B8A9E"/>
<g id="contents">
<g id="Frame 1">
<path id="Vector" fill-rule="evenodd" clip-rule="evenodd" d="M9.9375 48C4.44917 48 0 43.5508 0 38.0625V9.9375C0 4.44917 4.44917 0 9.9375 0H38.0625C43.5508 0 48 4.44917 48 9.9375V38.0625C48 43.5508 43.5508 48 38.0625 48H9.9375ZM36.2732 18.2376V20.5472L39 22.9447V28.6606H36.2732V39H33.6159V37.0773C33.6159 32.3569 29.5182 28.5287 24.4629 28.5251H24.4587H24.4568H24.455C24.4427 28.5251 24.4312 28.5264 24.4201 28.5264C21.3293 28.5451 18.8295 30.8889 18.8295 33.7802L18.8289 38.9975L15.189 39V27.4754H13.4064C12.4794 27.4754 11.7268 26.7233 11.7268 25.7956V15.3403H9V11.7191H11.7268V10.6797H15.294V22.4369L20.5377 10.0492L22.2692 10.0522L25.3637 16.558L28.5106 9H30.5036L36.2732 18.2376Z" fill="white"/>
</g>
</g>
</g>
</g>
</svg>
