<svg width="11" height="13" viewBox="0 0 11 13" fill="none" xmlns="http://www.w3.org/2000/svg">
<rect width="11" height="13" fill="#F5F5F5"/>
<g id="Section2">
<path d="M-346 -2776.46C-346 -2777.56 -345.105 -2778.46 -344 -2778.46H3809C3810.1 -2778.46 3811 -2777.56 3811 -2776.46V815.54C3811 816.645 3810.1 817.54 3809 817.54H-344C-345.105 817.54 -346 816.645 -346 815.54V-2776.46Z" fill="white"/>
<path d="M-344 -2778.46V-2777.46H3809V-2778.46V-2779.46H-344V-2778.46ZM3811 -2776.46H3810V815.54H3811H3812V-2776.46H3811ZM3809 817.54V816.54H-344V817.54V818.54H3809V817.54ZM-346 815.54H-345V-2776.46H-346H-347V815.54H-346ZM-344 817.54V816.54C-344.552 816.54 -345 816.092 -345 815.54H-346H-347C-347 817.197 -345.657 818.54 -344 818.54V817.54ZM3811 815.54H3810C3810 816.092 3809.55 816.54 3809 816.54V817.54V818.54C3810.66 818.54 3812 817.197 3812 815.54H3811ZM3809 -2778.46V-2777.46C3809.55 -2777.46 3810 -2777.01 3810 -2776.46H3811H3812C3812 -2778.12 3810.66 -2779.46 3809 -2779.46V-2778.46ZM-344 -2778.46V-2779.46C-345.657 -2779.46 -347 -2778.12 -347 -2776.46H-346H-345C-345 -2777.01 -344.552 -2777.46 -344 -2777.46V-2778.46Z" fill="black" fill-opacity="0.1"/>
<g id="TopView" clip-path="url(#clip0_501_272)">
<rect width="390" height="3099" transform="translate(-138 -2438.46)" fill="#F2FAFF"/>
<g id="Schedule">
<g id="Subscribe">
<path id="Polygon 1" d="M9.99722 4.30779C11.3313 5.07745 11.3313 7.00288 9.99722 7.77253L2.99944 11.8097C1.66611 12.5789 0 11.6167 0 10.0773V2.00298C0 0.463666 1.66611 -0.49862 2.99944 0.27061L9.99722 4.30779Z" fill="#B8DCE8"/>
</g>
</g>
</g>
</g>
<defs>
<clipPath id="clip0_501_272">
<rect width="390" height="3099" fill="white" transform="translate(-138 -2438.46)"/>
</clipPath>
</defs>
</svg>
