<svg width="290" height="48" viewBox="0 0 290 48" fill="none" xmlns="http://www.w3.org/2000/svg">
<rect width="290" height="48" fill="#F5F5F5"/>
<g id="Section2">
<path d="M-778 -952C-778 -953.105 -777.105 -954 -776 -954H3377C3378.1 -954 3379 -953.105 3379 -952V2640C3379 2641.1 3378.1 2642 3377 2642H-776C-777.105 2642 -778 2641.1 -778 2640V-952Z" fill="white"/>
<path d="M-776 -954V-953H3377V-954V-955H-776V-954ZM3379 -952H3378V2640H3379H3380V-952H3379ZM3377 2642V2641H-776V2642V2643H3377V2642ZM-778 2640H-777V-952H-778H-779V2640H-778ZM-776 2642V2641C-776.552 2641 -777 2640.55 -777 2640H-778H-779C-779 2641.66 -777.657 2643 -776 2643V2642ZM3379 2640H3378C3378 2640.55 3377.55 2641 3377 2641V2642V2643C3378.66 2643 3380 2641.66 3380 2640H3379ZM3377 -954V-953C3377.55 -953 3378 -952.552 3378 -952H3379H3380C3380 -953.657 3378.66 -955 3377 -955V-954ZM-776 -954V-955C-777.657 -955 -779 -953.657 -779 -952H-778H-777C-777 -952.552 -776.552 -953 -776 -953V-954Z" fill="black" fill-opacity="0.1"/>
<g id="HamburgerMenuView">
<rect width="390" height="844" transform="translate(-50 -613)" fill="#6B8A9E"/>
<g id="contents">
<g id="Frame 1">
<path id="Vector" d="M31.5 4H43.1216L51.5947 16.3971C52.1132 17.1693 52.6622 17.936 53.1749 18.7097C54.2658 17.3997 55.4129 16.0921 56.5248 14.7951L62.7513 7.53191C63.7441 6.37383 64.8112 5.17136 65.7771 4H69.226C68.5998 4.75856 67.9211 5.52816 67.2778 6.2783L63.6592 10.4991L54.7048 20.942L65.4409 36.6029L68.8707 41.6117L69.954 43.193C70.0939 43.3971 70.3848 43.7977 70.5 44H58.8797L48.2623 28.4641L34.9422 44H31.5V43.9863C31.5617 43.9307 31.7961 43.6449 31.8608 43.5689L32.6742 42.617L35.5095 39.3113L42.9081 30.6811L45.3632 27.8178C45.8051 27.3023 46.2756 26.7316 46.7312 26.2332C45.774 24.7805 44.7104 23.2977 43.7218 21.854L37.2213 12.3595L33.3531 6.71039L32.1679 4.97786C31.9722 4.69081 31.7069 4.27556 31.5 4.01299V4ZM60.4971 41.515C62.2496 41.5096 64.0404 41.4969 65.7911 41.5146C65.4066 40.9891 65.0252 40.4242 64.652 39.8885L62.6483 37.0117L56.6258 28.3666L41.4666 6.59764L38.0288 6.59848C37.4792 6.59842 36.7254 6.57613 36.1887 6.60654L52.574 30.1316L57.9675 37.8725L59.6567 40.2965C59.869 40.601 60.3232 41.215 60.4971 41.515Z" fill="white"/>
<path id="Vector_2" d="M136.908 10.527C136.914 10.5263 136.92 10.5256 136.926 10.5248C137.793 10.5103 138.667 10.5042 139.533 10.5026C141.145 10.4947 142.757 10.5047 144.369 10.5324C146.959 10.5677 149.548 10.6647 152.134 10.8236C154.212 10.9704 156.654 11.0077 158.25 12.4525C158.787 12.9423 159.206 13.5402 159.476 14.2037C160.21 16.009 160.408 20.2638 160.473 22.2722C160.561 24.9989 160.434 28.0615 160.118 30.7793C160.03 31.5326 159.818 32.8478 159.564 33.5665C159.328 34.234 158.947 34.8446 158.444 35.3565C157.877 35.9388 157.167 36.3735 156.379 36.62C155.317 36.9563 153.429 37.0959 152.274 37.1777C149.549 37.3481 146.821 37.4497 144.09 37.4823C139.656 37.5126 135.218 37.5317 130.787 37.2969C129.254 37.2154 126.303 37.0742 124.863 36.6884C124.076 36.4813 123.354 36.0904 122.76 35.5504C122.202 35.0436 121.764 34.4251 121.479 33.7381C120.855 32.1978 120.618 28.2986 120.554 26.5535C120.434 23.6437 120.515 20.7294 120.797 17.83C120.987 15.9879 121.156 14.0688 122.533 12.6578C123.111 12.0702 123.834 11.6326 124.634 11.3852C125.693 11.0506 127.451 10.9321 128.595 10.8407C131.358 10.62 134.143 10.6169 136.908 10.527ZM136.517 29.7818C138.611 28.5634 140.831 27.3596 142.952 26.1732L145.465 24.7667C145.902 24.5227 146.412 24.221 146.853 23.9992C146.211 23.6024 145.397 23.1753 144.729 22.8035L140.72 20.5724L137.959 19.0361C137.579 18.8238 136.883 18.4031 136.516 18.2422C136.546 20.7171 136.52 23.2381 136.52 25.7162L136.52 28.3961C136.521 28.7862 136.542 29.4034 136.517 29.7818Z" fill="white"/>
<path id="Vector_3" fill-rule="evenodd" clip-rule="evenodd" d="M220.438 48C214.949 48 210.5 43.5508 210.5 38.0625V9.9375C210.5 4.44917 214.949 0 220.438 0H248.562C254.051 0 258.5 4.44917 258.5 9.9375V38.0625C258.5 43.5508 254.051 48 248.562 48H220.438ZM246.773 18.2376V20.5472L249.5 22.9447V28.6606H246.773V39H244.116V37.0773C244.116 32.3569 240.018 28.5287 234.963 28.5251H234.959H234.957H234.955C234.943 28.5251 234.931 28.5264 234.92 28.5264C231.829 28.5451 229.329 30.8889 229.329 33.7802L229.329 38.9975L225.689 39V27.4754H223.906C222.979 27.4754 222.227 26.7233 222.227 25.7956V15.3403H219.5V11.7191H222.227V10.6797H225.794V22.4369L231.038 10.0492L232.769 10.0522L235.864 16.558L239.011 9H241.004L246.773 18.2376Z" fill="white"/>
</g>
</g>
</g>
</g>
</svg>
